<svg id="arrow-down" xmlns="http://www.w3.org/2000/svg" viewBox="0 0 48 48"><defs><style>.cls-1{fill:none;}.cls-2{fill:#010101;}</style></defs><path class="cls-1" d="M0,0H48V48H0Z"/><path class="cls-2" d="M24,18a6,6,0,1,0,6,6A6,6,0,0,0,24,18Zm0-4A10,10,0,1,1,14,24,10,10,0,0,1,24,14Zm13-.5A2.5,2.5,0,1,1,34.5,11,2.5,2.5,0,0,1,37,13.5ZM24,8c-4.95,0-5.76,0-8.06.12a10.69,10.69,0,0,0-3.59.66,5.74,5.74,0,0,0-2.16,1.41,5.67,5.67,0,0,0-1.41,2.16,10.8,10.8,0,0,0-.66,3.59C8,18.15,8,18.92,8,24s0,5.76.12,8.06a10.74,10.74,0,0,0,.66,3.59,6.22,6.22,0,0,0,3.56,3.57,10.91,10.91,0,0,0,3.6.66c2.21.11,3,.12,8.06.12s5.76,0,8.06-.12a10.74,10.74,0,0,0,3.59-.66,5.84,5.84,0,0,0,2.16-1.4,5.74,5.74,0,0,0,1.41-2.16,10.91,10.91,0,0,0,.66-3.6c.11-2.21.12-3,.12-8.06s0-5.76-.12-8.06a10.74,10.74,0,0,0-.66-3.59,5.67,5.67,0,0,0-1.41-2.16,5.67,5.67,0,0,0-2.16-1.41,10.8,10.8,0,0,0-3.59-.66C29.85,8,29.08,8,24,8Zm0-4c5.43,0,6.11,0,8.24.12a14.68,14.68,0,0,1,4.86.93,9.76,9.76,0,0,1,3.54,2.31A9.79,9.79,0,0,1,43,10.9a14.88,14.88,0,0,1,.93,4.86C44,17.89,44,18.57,44,24s0,6.11-.12,8.24A14.94,14.94,0,0,1,43,37.1a9.62,9.62,0,0,1-2.31,3.54A9.79,9.79,0,0,1,37.1,43a14.88,14.88,0,0,1-4.86.93C30.11,44,29.43,44,24,44s-6.11,0-8.24-.12A14.94,14.94,0,0,1,10.9,43,10.27,10.27,0,0,1,5.05,37.1a14.63,14.63,0,0,1-.93-4.86C4,30.11,4,29.43,4,24s0-6.11.12-8.24a14.63,14.63,0,0,1,.93-4.86A9.62,9.62,0,0,1,7.36,7.36,9.7,9.7,0,0,1,10.9,5.05a14.63,14.63,0,0,1,4.86-.93C17.89,4,18.57,4,24,4Z"/></svg>