<svg xmlns="http://www.w3.org/2000/svg" xmlns:xlink="http://www.w3.org/1999/xlink" width="200" height="40" viewBox="0 0 200 40" class=""><defs><clipPath id="clip-logo-fuoripista"><rect width="200" height="40"></rect></clipPath></defs><g id="logo-fuoripista" clip-path="url(#clip-logo-fuoripista)"><path id="Path_1" data-name="Path 1" d="M240.92,209.643h10.892v1.226H240.9Zm13.007-11.185H238.381V225.81h-1.225V197.232h16.782Z" transform="translate(-232.156 -195.232)" fill-rule="evenodd"></path><path id="Path_2" data-name="Path 2" d="M252.427,200.377v11.84q0,6.081,1.938,8.552a6.983,6.983,0,0,0,10.656,0q1.94-2.47,1.938-8.552v-11.84h1.225v11.84q0,12.248-8.491,12.246T251.2,212.217v-11.84Z" transform="translate(-224.318 -193.478)"></path><path id="Path_3" data-name="Path 3" d="M275.675,224.609q-5.1,0-7.305-2.9t-2.206-9.349q0-6.452,2.206-9.349t7.305-2.9q5.106,0,7.308,2.9t2.206,9.349q0,6.448-2.206,9.349T275.675,224.609Zm0-23.27a11.685,11.685,0,0,0-3.429.43,6.157,6.157,0,0,0-2.55,1.591,7.249,7.249,0,0,0-1.736,3.389,27.843,27.843,0,0,0,0,11.227,7.241,7.241,0,0,0,1.736,3.389,6.177,6.177,0,0,0,2.55,1.592,13.949,13.949,0,0,0,6.861,0,6.162,6.162,0,0,0,2.549-1.592,7.241,7.241,0,0,0,1.737-3.389,27.84,27.84,0,0,0,0-11.227,7.249,7.249,0,0,0-1.737-3.389,6.142,6.142,0,0,0-2.549-1.591A11.7,11.7,0,0,0,275.675,201.34Z" transform="translate(-215.971 -193.623)"></path><rect id="Rectangle_30" data-name="Rectangle 30" width="1.225" height="23.678" transform="translate(97.021 6.899)"></rect><path id="Path_4" data-name="Path 4" d="M283.924,200.377v23.678H282.7V200.377Zm1.228,0h2.039q4.819,0,7.288,1.673a5.25,5.25,0,0,1,2.469,4.573,4.91,4.91,0,0,1-1.266,3.326,8.526,8.526,0,0,1-3.021,2.226l5.551,11.879h-1.346l-5.716-12.247c.054-.028.293-.142.715-.347s.715-.352.877-.449.436-.265.818-.509a3.761,3.761,0,0,0,.857-.715q.285-.346.633-.816a3.222,3.222,0,0,0,.511-1.061,4.89,4.89,0,0,0,.164-1.287,4.01,4.01,0,0,0-2.451-3.8,13.551,13.551,0,0,0-6.082-1.225h-2.039Z" transform="translate(-206.745 -193.478)" fill-rule="evenodd"></path><rect id="Rectangle_31" data-name="Rectangle 31" width="1.225" height="23.678" transform="translate(127.599 6.899)"></rect><path id="Path_5" data-name="Path 5" d="M304.439,200.377h2.529q5.387,0,8.123,1.98a6.482,6.482,0,0,1,2.736,5.573,6.4,6.4,0,0,1-3.429,6l-2.287,1.305-.612-1.061,2.287-1.307a5.231,5.231,0,0,0,2.817-4.939q0-6.328-9.634-6.328h-2.529Zm-1.225,0,0,31.843h-1.224V200.377Z" transform="translate(-195.984 -193.478)" fill-rule="evenodd"></path><path id="Path_6" data-name="Path 6" d="M328.325,200.063q5.062,0,7.185,2.245l-.815.9q-1.963-1.916-6.205-1.918-6.368,0-6.369,5.063a3.7,3.7,0,0,0,1.552,3.121,11.124,11.124,0,0,0,3.775,1.776q2.227.615,4.45,1.287a9.2,9.2,0,0,1,3.778,2.164,5.16,5.16,0,0,1,1.55,3.9,5.258,5.258,0,0,1-2.326,4.492q-2.325,1.673-6.735,1.673a16.22,16.22,0,0,1-4.267-.57,6.494,6.494,0,0,1-3.124-1.675l.816-.9q2.082,1.921,6.409,1.919a10.121,10.121,0,0,0,5.981-1.471A4.206,4.206,0,0,0,336,218.637a4.062,4.062,0,0,0-1.552-3.306,10.347,10.347,0,0,0-3.776-1.9q-2.225-.636-4.451-1.307a9.564,9.564,0,0,1-3.773-2.1,4.866,4.866,0,0,1-1.553-3.756,5.4,5.4,0,0,1,2.1-4.672A8.818,8.818,0,0,1,328.325,200.063Z" transform="translate(-185.5 -193.653)"></path><path id="Path_7" data-name="Path 7" d="M333.194,201.6h18.373v-1.224H333.194Zm8.573,22.453h1.225V202.835h-1.225Z" transform="translate(-178.57 -193.478)" fill-rule="evenodd"></path><path id="Path_8" data-name="Path 8" d="M351.275,222.976h13.309l-8.369-19.718-8.9,20.943h-1.307l10.206-24.086L366.421,224.2H351.275Z" transform="translate(-171.42 -193.623)"></path><path id="Path_1-2" data-name="Path 1" d="M240.92,209.643h10.892v1.226H240.9Zm13.007-11.185H238.381V225.81h-1.225V197.232h16.782Z" transform="translate(-232.156 -195.232)" fill-rule="evenodd"></path><path id="Path_2-2" data-name="Path 2" d="M252.427,200.377v11.84q0,6.081,1.938,8.552a6.983,6.983,0,0,0,10.656,0q1.94-2.47,1.938-8.552v-11.84h1.225v11.84q0,12.248-8.491,12.246T251.2,212.217v-11.84Z" transform="translate(-224.318 -193.478)"></path><path id="Path_3-2" data-name="Path 3" d="M275.675,224.609q-5.1,0-7.305-2.9t-2.206-9.349q0-6.452,2.206-9.349t7.305-2.9q5.106,0,7.308,2.9t2.206,9.349q0,6.448-2.206,9.349T275.675,224.609Zm0-23.27a11.685,11.685,0,0,0-3.429.43,6.157,6.157,0,0,0-2.55,1.591,7.249,7.249,0,0,0-1.736,3.389,27.843,27.843,0,0,0,0,11.227,7.241,7.241,0,0,0,1.736,3.389,6.177,6.177,0,0,0,2.55,1.592,13.949,13.949,0,0,0,6.861,0,6.162,6.162,0,0,0,2.549-1.592,7.241,7.241,0,0,0,1.737-3.389,27.84,27.84,0,0,0,0-11.227,7.249,7.249,0,0,0-1.737-3.389,6.142,6.142,0,0,0-2.549-1.591A11.7,11.7,0,0,0,275.675,201.34Z" transform="translate(-215.971 -193.623)"></path><rect id="Rectangle_30-2" data-name="Rectangle 30" width="1.225" height="23.678" transform="translate(97.021 6.899)"></rect><path id="Path_4-2" data-name="Path 4" d="M283.924,200.377v23.678H282.7V200.377Zm1.228,0h2.039q4.819,0,7.288,1.673a5.25,5.25,0,0,1,2.469,4.573,4.91,4.91,0,0,1-1.266,3.326,8.526,8.526,0,0,1-3.021,2.226l5.551,11.879h-1.346l-5.716-12.247c.054-.028.293-.142.715-.347s.715-.352.877-.449.436-.265.818-.509a3.761,3.761,0,0,0,.857-.715q.285-.346.633-.816a3.222,3.222,0,0,0,.511-1.061,4.89,4.89,0,0,0,.164-1.287,4.01,4.01,0,0,0-2.451-3.8,13.551,13.551,0,0,0-6.082-1.225h-2.039Z" transform="translate(-206.745 -193.478)" fill-rule="evenodd"></path><rect id="Rectangle_31-2" data-name="Rectangle 31" width="1.225" height="23.678" transform="translate(127.599 6.899)"></rect><path id="Path_5-2" data-name="Path 5" d="M304.439,200.377h2.529q5.387,0,8.123,1.98a6.482,6.482,0,0,1,2.736,5.573,6.4,6.4,0,0,1-3.429,6l-2.287,1.305-.612-1.061,2.287-1.307a5.231,5.231,0,0,0,2.817-4.939q0-6.328-9.634-6.328h-2.529Zm-1.225,0,0,31.843h-1.224V200.377Z" transform="translate(-195.984 -193.478)" fill-rule="evenodd"></path><path id="Path_6-2" data-name="Path 6" d="M328.325,200.063q5.062,0,7.185,2.245l-.815.9q-1.963-1.916-6.205-1.918-6.368,0-6.369,5.063a3.7,3.7,0,0,0,1.552,3.121,11.124,11.124,0,0,0,3.775,1.776q2.227.615,4.45,1.287a9.2,9.2,0,0,1,3.778,2.164,5.16,5.16,0,0,1,1.55,3.9,5.258,5.258,0,0,1-2.326,4.492q-2.325,1.673-6.735,1.673a16.22,16.22,0,0,1-4.267-.57,6.494,6.494,0,0,1-3.124-1.675l.816-.9q2.082,1.921,6.409,1.919a10.121,10.121,0,0,0,5.981-1.471A4.206,4.206,0,0,0,336,218.637a4.062,4.062,0,0,0-1.552-3.306,10.347,10.347,0,0,0-3.776-1.9q-2.225-.636-4.451-1.307a9.564,9.564,0,0,1-3.773-2.1,4.866,4.866,0,0,1-1.553-3.756,5.4,5.4,0,0,1,2.1-4.672A8.818,8.818,0,0,1,328.325,200.063Z" transform="translate(-185.5 -193.653)"></path><path id="Path_7-2" data-name="Path 7" d="M333.194,201.6h18.373v-1.224H333.194Zm8.573,22.453h1.225V202.835h-1.225Z" transform="translate(-178.57 -193.478)" fill-rule="evenodd"></path><path id="Path_8-2" data-name="Path 8" d="M351.275,222.976h13.309l-8.369-19.718-8.9,20.943h-1.307l10.206-24.086L366.421,224.2H351.275Z" transform="translate(-171.42 -193.623)"></path></g></svg>