<svg xmlns="http://www.w3.org/2000/svg" viewBox="0 0 100 10" class="ui-cta-underline__svg"><path d="M15.5 1c-1.5.5-2.6 1-3.4 1.3-3.2 1.5-6.3 3.2-9.2 5.2C1.2 8.6.9 8.9 1 9c.2.2 1.7-.4 4.6-1.5s5.9-2.2 8.8-3.3c2.5-.9 5-1.7 7.5-2.4.8-.2 2.1-.6 2.4-.3.1.1.2.3-1 1.3-1.1.9-2.2 1.6-3.4 2.4-1.4.9-3.2 2.2-2.8 2.6.3.4 2.1.3 3.2 0 .3-.1.6-.2 1-.3 7.9-2.5 16.1-4 24.5-4.4C57.5 2.8 60.2 5.6 68 6.3c6.6.7 22.3-3 31-2.8" fill="none" stroke="#c39d42" stroke-width="2" stroke-linecap="round" stroke-miterlimit="3.998" style="stroke-dashoffset: 0px; stroke-dasharray: 134.176;"></path></svg>